P2
84 120
255
104
96 88 80 96 96 96 88 80 88 80 80 80 72 80 88 80 88 80 80 80 88 88 88 88 88 96 88 96 88 88 88 88 88 96 96 96 96 88 80 88 88 88 88 88 88 80 80 80 80 80 80 80 80 80 80 88 80 80 72 80 72 72 72 72 72 80 72 80 72 72 72 80 80 80 72 64 64 64 64 72 64 64 24 112
104 96 88 96 96 96 88 96 88 80 88 80 88 96 88 80 88 88 88 80 88 96 96 96 96 104 96 96 96 104 96 88 88 96 96 104 112 96 96 96 104 120 120 104 96 96 96 88 88 80 72 72 80 88 80 80 80 80 80 80 72 72 80 88 88 80 80 88 80 80 80 80 72 72 72 64 64 64 64 72 72 64 24 104
96 96 88 88 88 96 96 96 88 80 80 80 88 88 88 88 104 96 88 88 96 96 96 96 96 104 96 96 104 104 96 96 104 104 112 112 112 104 112 120 120 128 128 120 120 128 120 104 96 88 80 80 80 88 88 80 88 80 80 88 80 88 80 88 88 88 88 88 80 80 80 80 72 72 72 64 72 72 64 72 72 72 24 112
96 96 88 80 88 88 96 88 88 80 80 80 88 88 96 96 112 104 96 88 88 96 96 104 104 112 112 112 112 104 104 104 112 112 128 120 112 104 112 120 120 136 120 120 112 120 120 112 112 96 96 96 96 96 88 80 80 80 80 80 80 88 88 80 80 80 96 96 88 80 80 72 80 72 72 72 72 72 72 72 72 72 24 104
104 96 88 88 88 96 88 80 80 80 80 80 88 88 96 96 112 112 96 88 96 88 96 96 104 104 112 112 112 112 104 112 128 120 128 136 128 112 128 136 136 136 136 128 128 120 120 120 120 112 112 112 104 88 80 80 88 72 72 72 80 80 80 80 72 80 80 80 88 80 80 80 72 72 72 80 80 72 72 72 72 72 24 112
112 104 104 88 96 88 88 88 88 80 88 80 88 88 96 104 96 96 96 96 96 96 88 96 104 112 120 112 112 120 112 112 120 136 136 144 128 104 80 64 56 56 56 64 72 96 120 120 128 120 104 104 96 96 88 88 96 80 72 72 80 80 80 80 80 80 80 80 88 80 80 80 80 72 80 88 80 72 72 72 72 72 24 112
104 104 104 104 104 88 88 96 104 88 88 80 80 80 88 96 96 104 96 96 96 96 96 96 104 104 112 112 112 112 112 104 120 136 120 80 32 16 16 16 16 16 16 16 16 16 32 64 112 128 120 112 104 104 96 96 96 80 80 80 80 88 88 80 80 80 88 88 88 80 80 80 80 80 88 88 80 80 72 72 72 80 24 96
104 104 112 112 104 96 88 96 96 96 88 80 88 88 88 96 88 104 96 96 96 96 104 104 104 112 112 112 120 120 104 120 112 80 24 16 24 16 16 16 16 16 16 16 16 16 16 16 24 64 112 136 112 96 96 104 88 80 80 88 88 88 96 88 88 80 96 96 96 88 88 80 80 80 88 96 88 80 80 80 80 80 24 112
104 104 112 112 104 96 88 88 96 104 96 88 88 96 104 88 96 104 112 104 96 96 96 96 112 120 120 120 120 128 128 112 56 16 16 16 24 16 16 16 16 16 16 8 16 16 16 16 16 16 40 120 128 120 112 112 104 88 96 88 96 96 104 104 104 96 112 120 104 88 96 96 96 88 96 96 88 88 88 88 80 80 24 112
104 96 104 104 104 112 96 96 112 112 104 96 104 112 112 104 104 112 104 96 96 96 96 96 120 120 120 120 120 136 120 48 24 16 16 16 32 16 16 16 16 16 16 16 16 16 16 16 16 16 16 24 112 136 136 120 112 104 96 104 96 96 104 104 104 104 120 128 112 96 96 96 96 96 88 88 96 88 96 96 96 88 24 120
120 112 112 112 120 112 104 112 112 104 88 96 112 112 112 120 120 120 112 104 104 96 96 112 112 112 120 128 136 136 56 16 16 16 16 24 32 16 16 16 16 16 16 8 16 16 16 16 16 16 16 16 40 128 144 144 128 104 112 104 104 104 96 88 96 120 120 120 96 88 104 104 96 104 96 88 96 96 96 104 96 80 24 120
136 136 128 136 120 120 120 120 112 96 88 104 120 120 120 120 128 128 128 120 112 112 104 120 128 128 136 144 144 104 16 16 24 40 56 80 96 80 64 56 40 24 24 16 16 16 16 16 16 8 8 16 16 48 144 136 128 112 112 104 112 112 112 112 112 112 120 120 96 104 104 96 96 112 96 96 96 104 104 112 112 96 32 120
136 152 144 128 112 120 128 128 120 112 112 112 120 120 120 128 136 128 128 120 120 112 112 128 136 136 144 144 128 40 24 48 80 128 144 160 160 152 120 88 72 64 40 32 24 16 16 16 16 16 16 16 16 16 96 144 136 120 120 112 128 128 128 136 128 120 120 120 104 104 112 104 96 104 104 104 104 112 104 128 120 104 32 128
128 136 136 128 112 112 128 136 136 128 128 120 128 128 136 128 128 120 128 120 120 128 128 136 144 144 144 136 80 24 40 80 152 200 216 224 232 224 200 168 136 104 64 48 32 24 16 16 16 16 8 16 16 16 32 128 144 128 120 112 120 120 120 128 136 136 128 120 112 104 104 112 104 96 96 104 96 96 96 112 120 112 32 144
136 136 128 128 120 128 128 144 152 144 136 136 128 144 136 136 144 144 136 128 128 136 128 136 136 144 144 120 32 24 72 160 224 232 240 248 248 240 232 216 192 152 104 56 40 32 24 24 16 16 8 16 16 16 16 80 144 136 112 104 104 104 120 128 128 136 128 128 112 112 120 120 112 104 104 104 104 112 112 120 120 104 32 152
136 152 136 128 136 144 144 152 152 144 152 144 144 136 136 128 136 144 144 136 144 136 120 120 120 144 128 64 16 32 96 168 216 232 240 248 248 240 240 224 200 152 104 64 48 40 32 24 16 16 8 16 16 16 16 32 144 144 112 88 96 120 128 128 136 136 136 128 112 120 120 128 120 112 120 120 120 120 120 128 112 112 32 152
152 184 144 144 152 160 192 184 160 160 176 152 152 160 160 144 152 152 152 144 144 144 136 136 136 128 96 24 16 48 104 160 208 224 224 224 224 232 224 208 176 128 88 64 56 40 32 24 24 16 8 16 16 16 16 16 112 120 88 88 96 120 104 128 128 144 120 120 112 112 120 120 128 128 136 136 128 136 136 128 128 104 32 144
152 176 152 144 152 160 184 184 184 176 176 168 176 176 176 160 168 160 152 144 152 144 136 144 152 128 48 24 16 48 112 160 192 200 200 200 208 216 216 192 144 112 88 72 64 56 40 32 24 16 16 16 16 16 8 16 56 72 72 88 80 96 72 96 120 112 136 128 120 120 120 120 112 120 136 136 136 136 128 136 128 112 32 128
144 144 136 120 128 144 168 152 176 184 192 168 168 200 192 184 176 160 176 168 144 136 152 168 184 88 24 16 24 64 112 152 192 200 192 192 192 216 216 200 152 128 112 96 80 64 56 40 24 16 16 16 16 16 8 16 24 56 64 72 72 72 64 80 120 80 120 88 128 128 136 136 136 136 136 136 136 144 136 136 128 104 32 112
96 104 104 96 96 120 160 152 192 192 144 128 120 176 192 200 184 160 176 176 168 184 192 192 176 48 16 16 24 80 128 168 192 200 200 200 200 216 224 216 192 160 144 128 112 80 64 48 24 24 16 16 16 16 8 16 16 56 48 56 56 56 56 72 80 80 96 72 128 136 136 144 144 136 136 136 128 144 144 144 112 96 24 104
80 64 88 96 96 88 120 136 152 136 120 104 104 120 192 168 192 192 208 200 200 208 208 224 152 40 16 16 24 72 128 160 176 184 200 208 208 208 176 144 144 144 136 120 104 80 64 40 32 24 16 16 16 16 8 16 16 40 40 48 56 64 64 64 56 72 88 64 104 136 136 144 144 136 136 136 128 144 128 120 96 80 24 88
72 64 72 80 88 80 88 104 104 104 104 88 80 88 88 72 136 200 200 200 200 208 208 216 112 32 16 16 24 80 120 112 88 112 176 192 192 120 56 48 56 72 80 72 64 48 40 40 24 24 16 16 16 16 16 16 16 40 32 40 56 64 64 56 56 64 80 56 72 96 136 144 136 136 144 136 136 128 112 96 80 80 24 64
64 64 72 80 88 80 88 96 80 72 72 64 64 64 56 64 64 96 176 176 192 176 176 160 72 24 16 16 16 48 56 56 48 48 112 160 128 48 24 32 56 64 40 24 24 24 24 32 32 24 16 16 16 16 16 16 16 24 32 32 40 40 48 48 56 56 56 48 72 80 144 144 136 128 136 136 136 120 112 88 96 72 16 64
72 64 72 96 80 72 88 80 72 64 64 48 48 48 56 64 64 64 160 176 176 144 136 136 72 24 16 16 16 24 32 48 32 32 56 144 96 32 24 48 48 24 24 16 16 24 40 40 32 24 16 8 16 16 16 16 16 24 32 32 32 32 48 40 48 56 32 40 64 72 136 144 120 128 128 128 104 104 96 88 88 72 24 64
72 72 80 80 80 80 72 72 64 64 64 56 48 56 48 64 64 80 168 160 120 112 120 128 88 24 16 16 24 64 56 96 48 40 64 144 88 24 48 112 112 48 40 40 72 88 72 48 32 24 16 16 16 16 16 16 16 24 32 32 32 32 32 32 32 48 40 32 40 64 128 136 128 120 112 112 96 96 96 80 80 64 24 64
72 72 80 80 80 88 80 72 72 72 72 40 48 48 48 64 56 104 128 104 64 56 72 120 72 16 16 16 32 96 96 80 56 64 96 152 80 40 56 80 72 64 56 80 112 128 88 48 24 24 16 16 16 16 16 16 16 24 32 32 32 32 32 40 32 40 32 40 48 64 112 136 120 104 104 104 96 88 88 88 72 72 24 72
72 72 80 72 72 80 72 64 72 64 64 40 48 48 40 48 40 56 72 64 56 64 48 80 32 16 16 16 32 152 192 176 144 160 152 168 80 48 104 168 176 192 192 184 144 112 72 40 24 16 16 16 16 16 8 16 16 16 24 32 32 32 48 48 48 40 32 32 40 56 80 136 120 112 88 96 96 96 88 80 80 72 24 64
48 64 72 72 72 72 64 56 64 56 40 48 48 48 32 40 40 48 48 48 56 56 40 48 24 24 16 16 32 120 176 200 208 200 184 184 80 64 120 192 200 216 208 176 128 80 64 40 24 16 16 16 16 16 8 16 16 16 40 40 32 32 40 40 32 40 32 32 32 40 64 104 112 96 96 96 96 104 88 88 88 80 24 56
40 72 72 72 72 72 56 48 56 56 48 48 56 48 40 40 40 40 32 32 48 48 40 32 24 16 16 16 24 96 168 200 208 184 176 200 88 72 120 176 192 208 200 152 104 64 56 32 24 24 16 16 16 16 16 16 16 24 72 72 72 80 80 80 72 72 72 64 64 64 72 72 80 88 80 80 80 88 88 80 80 80 24 40
32 56 64 64 56 64 56 48 64 56 56 48 48 40 40 40 40 40 40 32 48 40 40 24 16 16 16 16 16 72 152 184 184 136 160 184 96 64 96 160 168 184 160 136 80 56 40 32 24 24 16 16 16 16 16 16 16 16 32 40 40 56 72 72 56 64 72 80 88 88 96 104 120 120 112 96 72 72 72 88 104 96 24 32
32 48 64 64 56 56 56 48 56 64 56 48 48 40 40 48 48 40 40 40 48 40 40 16 16 16 16 16 16 56 120 160 160 112 176 184 88 64 72 176 152 152 136 96 64 48 32 24 24 24 16 16 16 16 16 16 16 16 24 24 32 32 40 40 32 32 32 32 40 56 64 72 80 80 72 64 48 48 40 56 80 56 16 32
32 32 64 64 56 56 56 48 56 48 56 56 56 48 48 56 48 40 40 40 48 40 40 24 16 16 16 16 8 40 88 120 136 128 88 88 32 32 48 152 160 136 104 72 56 40 32 32 32 24 16 16 16 16 8 16 16 16 24 24 32 32 32 32 32 32 32 32 40 40 48 56 56 56 56 56 56 48 48 48 40 40 16 32
32 32 48 64 64 56 56 56 56 48 48 56 56 56 48 48 48 48 48 48 48 40 40 24 16 16 16 16 16 32 64 88 136 208 160 32 24 32 56 112 104 88 72 64 56 40 32 32 32 24 16 16 8 16 16 16 16 16 24 32 32 40 32 32 32 32 32 32 40 40 56 40 40 48 48 56 56 48 56 56 48 48 16 32
32 32 40 72 64 56 56 56 48 48 56 56 56 48 48 48 48 56 48 40 48 48 40 24 16 16 16 16 16 24 64 80 88 136 176 88 56 56 64 64 56 72 80 64 48 48 32 32 24 24 16 16 16 16 16 16 16 16 16 32 32 40 32 32 32 40 24 32 32 32 40 48 48 48 56 56 56 48 56 56 48 40 8 32
32 32 40 72 64 56 56 48 56 48 56 56 56 48 48 48 48 48 48 40 40 40 40 32 16 16 16 16 16 16 48 80 80 56 64 64 48 40 40 40 72 88 80 64 56 48 32 32 24 16 16 16 16 16 16 8 16 16 16 32 40 40 32 40 40 40 40 40 40 40 56 64 64 64 64 64 56 56 40 40 32 32 8 32
32 32 48 64 56 56 56 56 56 56 56 48 40 40 48 48 48 40 40 40 40 40 40 32 16 16 16 16 16 16 24 80 120 168 144 104 80 64 64 80 88 88 80 56 48 40 32 24 24 16 16 16 16 16 16 16 16 16 16 32 40 40 40 48 40 40 40 40 48 48 56 64 64 64 56 48 40 32 32 40 40 40 16 32
32 40 48 56 64 56 56 56 56 56 56 48 40 48 40 40 40 40 40 40 48 48 40 32 24 16 16 16 16 16 16 32 80 128 128 64 48 48 64 72 80 72 64 48 40 40 32 24 24 16 16 16 16 16 16 8 16 16 16 32 40 40 48 48 48 40 40 40 48 40 48 48 40 40 32 32 32 32 32 56 48 40 16 32
32 32 32 40 56 56 56 48 48 48 48 40 40 40 48 40 48 48 48 48 48 48 48 32 24 16 16 16 16 16 16 16 40 96 160 184 152 104 88 80 72 64 48 40 32 32 32 24 24 16 16 16 16 16 16 16 16 16 16 24 48 40 48 48 56 56 40 40 40 40 48 48 32 32 32 32 40 40 48 64 56 40 16 32
32 24 24 32 48 56 56 48 56 48 48 48 48 40 40 48 56 56 56 56 64 64 64 48 24 16 16 16 16 16 16 16 16 48 136 192 192 128 88 72 64 48 40 32 32 32 24 24 24 16 16 16 16 16 16 16 16 16 16 24 48 56 48 56 56 48 48 40 48 40 48 56 48 56 56 48 48 48 48 64 64 56 16 24
32 24 24 24 24 48 56 48 48 48 48 40 40 40 40 48 48 48 48 48 48 56 48 48 24 16 16 16 16 16 16 16 16 16 48 96 104 80 64 48 40 40 32 32 24 24 24 24 24 16 16 16 16 16 16 16 16 16 16 24 48 48 48 48 56 56 48 48 48 48 48 48 48 48 48 40 48 40 48 56 48 40 8 24
24 24 32 24 24 40 56 56 56 56 48 48 40 48 40 48 56 48 56 56 64 72 72 72 24 16 16 16 16 16 16 16 16 16 16 32 40 40 40 32 32 32 32 32 24 24 24 32 24 24 16 16 16 16 16 16 16 16 16 24 40 40 32 32 32 40 40 40 40 32 40 32 40 48 40 40 40 40 48 64 64 48 16 24
24 32 24 24 24 24 48 48 56 48 48 40 40 48 48 56 56 56 48 56 64 64 72 72 32 16 16 16 16 16 16 16 16 8 8 16 24 24 24 24 24 24 24 24 24 24 24 32 32 24 16 16 16 16 16 16 16 16 16 16 32 32 32 32 40 32 32 32 32 32 32 32 32 24 24 24 24 40 48 40 48 48 16 24
24 24 24 24 24 24 40 56 64 64 56 56 56 56 56 56 64 64 72 72 72 72 72 72 48 16 16 16 16 16 16 16 16 8 8 16 24 40 32 24 24 24 24 32 24 24 32 32 32 24 16 16 16 16 16 16 16 16 16 16 32 40 40 32 40 40 40 32 32 32 32 32 24 24 24 24 24 24 40 40 40 48 16 24
24 24 24 24 24 24 32 48 48 48 48 56 56 56 56 64 72 72 72 72 80 72 72 72 64 32 16 16 16 16 16 16 16 8 8 16 24 56 40 32 32 32 32 32 32 32 40 40 32 24 16 16 16 16 16 16 16 16 16 16 32 32 32 32 40 32 32 32 32 40 40 40 32 24 32 32 40 40 40 40 40 48 16 40
48 48 40 32 32 40 48 56 56 64 64 64 64 64 64 72 72 72 72 72 80 80 72 72 72 40 16 16 16 16 16 16 16 8 16 16 16 56 56 56 40 40 32 32 40 40 48 48 40 24 16 16 16 16 16 16 16 16 16 16 32 48 56 64 72 72 64 64 56 64 64 64 56 56 56 64 72 64 56 48 48 56 24 56
56 56 56 48 56 56 56 56 64 64 56 64 64 56 64 64 72 72 72 72 80 72 72 64 56 40 16 16 16 16 16 16 16 16 16 16 16 48 72 64 56 48 40 40 40 48 56 56 48 32 16 16 16 16 16 16 16 16 16 16 24 32 32 40 40 40 56 64 64 72 80 64 56 64 64 64 64 48 40 48 40 40 16 56
64 64 64 64 64 64 64 72 72 48 40 48 56 48 32 40 72 72 64 56 64 72 64 56 48 40 16 16 16 16 16 16 16 16 16 16 16 40 64 72 64 64 56 48 56 64 64 64 56 40 24 16 16 16 16 16 24 16 16 16 16 16 16 16 16 16 24 48 56 40 32 56 72 80 64 56 56 40 40 48 40 32 8 64
64 64 64 64 64 64 64 72 56 48 48 40 32 32 40 32 32 32 48 48 40 48 32 32 32 24 16 16 16 16 16 16 16 16 16 24 40 48 64 72 72 64 64 64 64 72 72 80 64 48 24 16 16 16 16 16 24 16 16 16 8 16 16 16 24 24 24 32 24 16 16 24 48 72 64 64 48 40 40 48 40 32 8 64
64 64 64 64 64 64 64 56 56 48 48 32 40 40 48 40 32 32 32 40 32 40 32 32 32 24 24 16 16 16 16 16 16 24 40 56 80 80 80 88 80 80 72 80 88 88 96 96 88 64 32 16 16 16 24 16 16 16 16 16 16 16 16 16 16 16 24 24 32 24 24 32 56 72 72 48 40 40 48 56 48 32 8 56
64 64 64 56 56 56 48 56 56 48 40 40 40 40 40 40 32 32 32 32 32 40 32 24 24 24 16 16 16 16 16 24 40 56 56 80 112 120 104 112 96 88 104 104 112 120 112 112 112 72 40 24 16 16 24 16 24 16 16 16 16 16 24 40 40 40 48 64 72 72 80 80 80 88 56 32 40 32 48 40 40 32 8 40
48 64 64 48 48 40 40 48 48 40 40 32 48 40 40 40 32 32 40 32 32 40 32 24 24 16 16 16 16 16 16 40 64 88 104 120 128 144 136 128 120 112 128 144 144 136 128 112 96 72 32 24 16 16 24 16 24 16 16 16 16 16 16 16 24 32 40 80 120 120 96 64 48 48 40 40 48 40 40 40 40 40 16 48
48 48 40 40 40 40 48 40 48 48 48 48 56 56 48 32 32 40 40 32 32 40 32 24 24 16 16 16 16 16 32 72 104 120 136 152 152 152 160 144 136 136 144 152 160 144 136 112 88 64 32 24 16 16 24 16 16 16 16 16 16 16 16 16 16 24 24 40 112 96 72 48 48 48 40 40 40 40 40 40 48 48 8 48
48 48 40 32 48 48 48 40 48 40 56 48 56 48 48 32 32 40 48 32 32 40 32 32 24 16 16 16 16 24 48 112 136 144 152 160 168 168 168 160 152 144 152 160 160 152 144 120 88 72 40 24 16 16 16 16 16 16 16 16 16 16 16 8 16 24 24 32 72 96 104 104 80 80 72 64 56 56 64 64 64 56 16 48
48 48 48 40 40 56 48 40 48 40 56 48 48 40 40 40 32 32 40 32 32 40 32 24 24 16 16 16 24 32 64 136 144 152 168 168 168 168 168 168 160 152 160 168 160 152 144 120 88 64 40 24 24 16 16 16 16 16 16 16 16 16 16 16 16 24 24 32 40 48 56 56 56 64 56 48 56 64 64 72 48 40 8 48
48 48 48 48 40 48 56 64 56 48 64 56 56 40 48 40 32 40 40 40 40 40 32 16 24 16 16 24 24 40 88 152 160 168 176 176 168 168 168 168 160 152 160 168 160 152 136 120 96 64 32 16 16 16 16 16 16 16 16 16 16 16 16 16 16 16 16 32 32 48 48 72 64 88 64 48 64 56 56 56 56 56 16 48
48 40 48 48 40 40 72 72 72 64 64 48 56 48 40 40 40 40 48 40 48 32 16 16 16 16 24 32 32 48 104 152 168 176 176 176 176 168 168 168 168 160 168 160 152 144 128 112 88 56 32 24 24 16 16 16 16 16 16 16 16 16 16 16 16 8 8 16 16 32 48 72 88 112 112 104 112 112 112 112 104 88 24 40
40 40 48 40 32 40 40 40 72 80 80 64 64 56 48 40 40 40 48 40 32 24 16 16 16 16 24 40 48 64 144 160 168 176 176 176 176 168 168 168 168 168 168 160 152 144 128 112 80 56 24 24 16 16 16 16 16 24 24 24 24 32 24 16 16 8 8 8 8 16 16 24 32 40 72 80 80 72 104 104 112 80 24 40
40 40 40 32 32 32 32 32 40 56 80 72 64 56 48 40 40 48 40 24 24 24 16 16 16 16 40 64 72 128 152 168 168 176 176 176 168 168 168 176 168 168 160 160 160 152 136 120 88 56 24 24 16 16 16 32 40 32 32 32 32 32 32 24 16 16 8 16 16 8 8 16 16 16 32 40 40 40 56 48 64 40 16 48
40 40 48 40 40 40 32 32 32 24 32 64 64 64 56 48 48 48 24 16 16 16 16 16 16 24 56 112 112 152 168 168 168 168 168 168 168 168 176 176 168 168 168 168 160 152 136 104 80 40 24 16 16 16 24 24 32 48 64 48 32 32 16 16 16 8 8 8 16 16 8 16 16 24 16 16 24 24 32 40 56 48 16 40
40 40 40 40 40 32 32 32 32 32 24 40 32 40 64 72 64 32 16 16 16 16 16 16 16 24 64 128 152 176 176 176 160 160 152 152 152 168 176 176 176 176 168 168 168 160 136 104 72 48 24 24 16 24 32 56 56 40 24 16 16 16 8 8 8 8 8 8 16 8 8 8 8 16 24 16 16 16 40 72 96 80 24 40
32 32 40 32 32 32 32 32 24 24 24 24 24 32 40 64 48 16 16 16 16 16 16 16 16 24 48 128 160 168 176 168 152 136 136 144 160 176 184 184 184 176 176 176 168 152 136 120 72 40 24 16 32 40 32 16 16 8 8 8 8 8 8 8 8 8 8 8 8 8 8 8 8 16 16 16 16 16 16 16 40 96 32 40
40 32 32 32 32 32 32 32 32 32 32 32 48 56 64 56 24 16 16 16 16 16 16 16 24 16 24 64 120 160 168 168 144 112 136 160 168 176 184 184 184 184 176 168 168 152 152 88 48 32 24 24 24 16 8 8 8 8 8 8 8 8 8 8 8 8 8 8 8 8 8 8 8 16 16 16 16 16 16 24 24 24 8 40
32 32 32 32 32 40 48 48 48 48 56 56 56 48 32 16 16 16 16 16 16 16 8 16 24 32 24 24 40 72 120 136 112 88 136 176 176 176 184 184 184 184 176 160 160 160 96 48 24 16 16 16 8 8 8 8 8 8 8 8 8 8 8 8 8 8 8 8 8 8 8 8 8 16 16 24 16 16 16 16 24 24 8 40
40 32 32 32 40 40 32 32 32 32 32 32 32 24 16 16 16 16 16 16 16 16 16 24 24 32 32 24 32 24 32 40 40 64 120 168 176 176 176 176 184 184 168 152 152 88 40 16 16 16 8 8 8 8 8 8 8 8 8 8 8 8 8 8 8 8 8 8 8 8 8 8 8 16 16 24 24 24 24 24 24 24 8 32
32 32 32 32 48 32 24 24 32 24 24 24 24 16 8 16 16 16 16 16 8 16 16 32 32 40 32 32 32 32 24 24 24 16 32 48 64 80 104 128 144 152 136 112 56 24 16 16 16 16 8 8 8 8 8 8 8 8 8 8 8 8 8 8 8 8 8 8 8 8 8 8 8 16 16 16 24 24 24 24 24 24 8 32
32 32 32 32 40 40 32 24 32 40 40 32 24 8 8 16 16 16 16 16 8 16 24 32 32 32 32 32 32 40 24 24 24 24 24 24 32 24 24 24 24 32 32 24 16 16 16 16 16 16 8 8 8 8 8 8 8 8 8 8 8 8 8 8 8 8 8 8 8 8 8 8 8 8 16 16 16 16 16 16 24 24 8 16
32 32 32 40 40 40 40 40 48 56 56 56 40 8 16 16 16 16 8 8 8 16 32 32 32 32 32 24 40 32 32 32 40 32 32 24 24 24 24 24 24 24 16 16 16 16 16 16 16 8 8 8 8 8 8 8 16 16 8 8 16 8 8 8 8 8 8 8 8 8 8 8 8 16 16 16 16 16 16 16 16 24 8 24
24 32 32 32 32 40 40 40 40 48 40 48 24 16 8 16 8 8 8 8 16 16 24 24 24 32 24 24 24 24 24 32 40 40 32 32 32 32 24 24 24 16 16 16 16 16 16 8 8 8 8 8 8 8 8 8 16 16 8 8 16 8 8 8 8 8 8 8 8 16 8 8 8 8 16 16 16 24 16 16 16 16 8 24
24 24 24 24 24 24 24 24 24 24 24 24 16 8 8 8 8 16 8 16 16 16 24 24 24 32 24 24 24 24 24 32 32 32 32 24 32 24 24 24 16 16 16 16 16 16 8 8 8 8 8 8 8 8 8 16 16 16 8 8 16 16 16 16 16 16 8 8 16 16 8 8 8 8 8 8 16 24 24 24 24 24 8 24
16 24 24 24 24 24 24 24 24 24 24 24 16 8 8 8 8 8 16 8 16 16 24 24 24 24 24 24 16 16 24 24 32 32 24 24 24 24 24 16 16 16 16 16 16 8 8 8 8 8 8 8 8 8 8 16 16 16 16 16 24 16 16 16 16 16 16 16 16 8 8 8 0 8 8 8 8 24 32 32 32 16 8 24
24 24 24 24 24 24 24 24 24 24 24 24 16 16 16 16 8 8 16 16 16 16 16 16 24 24 16 24 16 16 16 24 24 24 24 24 24 16 16 16 16 16 8 8 8 8 8 8 8 8 8 8 8 8 8 8 8 16 16 16 16 16 16 16 16 16 16 16 8 8 8 8 8 8 8 8 8 16 24 32 24 16 8 24
24 32 32 32 32 24 24 24 32 24 24 16 16 16 8 8 8 8 16 16 16 16 16 16 24 16 16 16 16 8 16 16 16 16 16 16 16 16 16 16 16 16 16 8 8 8 8 8 8 8 8 8 8 8 8 8 8 16 16 16 16 16 16 16 16 16 16 8 8 8 0 8 8 8 8 8 8 16 16 16 24 16 8 24
24 48 48 48 40 32 40 40 48 40 24 16 8 8 8 16 16 16 16 16 16 16 16 16 16 16 16 16 16 16 16 16 16 16 16 16 16 8 8 16 16 16 8 8 8 8 8 8 8 8 8 8 8 8 8 8 8 16 16 16 16 16 16 16 16 16 8 8 8 8 8 0 8 8 8 8 8 8 16 24 32 16 8 24
40 48 56 56 48 48 48 48 56 40 24 16 8 8 16 16 16 16 16 16 16 16 16 16 16 16 16 16 16 16 16 16 16 16 16 16 16 16 16 16 16 8 8 8 8 8 8 8 8 8 8 8 8 8 8 8 8 16 16 16 16 16 16 16 8 8 0 8 8 0 8 0 8 8 8 8 8 8 24 24 32 24 8 32
56 56 56 56 56 56 48 56 56 48 24 8 8 8 16 16 8 16 8 16 16 8 16 16 16 16 16 16 16 16 16 16 8 8 16 16 16 16 16 16 8 16 16 8 8 8 8 8 8 8 8 8 8 8 8 8 8 16 16 16 16 16 16 8 0 0 0 8 8 0 0 0 0 8 8 8 8 8 16 24 32 32 8 48
48 56 56 48 56 48 48 56 48 40 16 8 8 8 16 16 8 8 8 16 16 16 8 16 16 16 16 8 16 16 16 16 8 8 16 16 16 16 16 16 16 16 8 8 8 8 8 8 8 8 8 8 8 8 8 8 8 16 16 16 16 16 8 8 8 0 0 8 8 8 8 0 0 8 8 8 8 8 16 32 32 40 8 40
40 40 40 40 40 32 40 32 32 16 16 16 8 16 16 16 8 8 8 16 16 16 16 16 16 16 16 8 16 16 16 16 16 16 16 8 16 16 8 8 16 8 8 8 8 8 8 8 8 8 8 8 8 8 8 16 16 8 8 8 8 8 8 8 8 0 0 8 0 8 8 8 0 8 8 8 0 8 8 16 24 24 8 24
24 24 24 24 24 24 24 16 16 16 16 16 16 8 16 16 8 16 16 16 16 16 16 8 8 16 8 16 16 16 16 16 16 8 8 8 16 8 16 16 8 8 8 8 8 8 8 8 8 8 8 8 8 8 8 8 8 8 8 8 8 8 8 8 8 0 0 0 0 0 0 0 0 8 0 0 0 8 8 16 16 16 8 24
24 24 24 24 24 24 16 16 8 16 16 16 8 8 16 8 16 16 16 8 16 16 16 16 16 16 16 16 8 16 8 8 8 8 8 8 8 8 16 16 8 8 8 8 8 8 8 8 8 8 8 8 8 8 8 16 8 8 0 8 0 8 8 0 0 0 0 0 0 0 0 0 0 0 0 0 0 8 8 8 16 16 8 24
24 24 24 24 24 24 16 16 8 16 16 16 16 16 16 16 8 16 8 8 16 16 16 16 8 8 16 8 8 8 8 8 8 8 8 8 8 8 8 16 8 8 8 8 8 8 8 8 8 8 8 8 8 8 8 16 8 8 0 0 0 8 0 0 0 0 0 0 0 0 0 0 0 8 8 0 8 8 8 16 16 16 8 24
24 24 24 24 24 16 16 16 16 16 16 16 16 16 16 16 8 8 16 16 16 16 16 16 8 8 8 16 8 8 8 8 8 8 8 8 8 8 8 8 8 8 8 8 8 8 8 8 8 0 0 0 0 8 8 8 0 0 0 0 0 0 0 0 0 8 8 0 0 0 8 0 0 0 8 0 0 8 8 16 16 16 8 24
24 24 24 24 16 8 16 16 16 8 16 16 16 16 16 16 16 8 8 16 16 16 16 16 8 8 8 16 8 8 8 8 8 8 8 16 16 8 8 8 8 8 8 8 8 8 8 8 8 8 0 8 0 8 8 8 0 0 0 0 8 8 0 0 0 8 8 8 0 0 8 0 0 0 0 0 0 8 8 8 16 16 8 24
24 32 24 16 8 8 16 16 16 8 8 8 16 16 16 16 16 16 16 16 16 16 16 16 16 16 8 16 16 16 8 8 8 8 8 8 8 8 8 8 8 8 8 8 8 8 8 8 8 0 0 0 8 8 8 0 0 0 0 0 8 8 0 0 0 8 8 8 0 0 0 0 0 0 0 0 0 0 8 8 16 16 8 24
24 24 16 8 8 8 16 16 16 8 16 16 8 8 16 16 8 16 16 16 16 16 16 16 16 16 16 16 8 8 8 8 8 8 8 8 8 8 8 8 8 8 8 8 8 8 0 8 8 0 8 8 8 8 8 8 0 0 0 0 0 8 0 0 0 0 0 0 0 0 0 0 0 0 0 0 0 0 8 8 8 16 8 24
24 16 16 8 16 16 16 16 16 16 16 16 8 16 8 8 8 16 16 16 16 16 8 16 16 16 16 16 8 16 8 8 16 16 8 8 8 8 8 8 8 8 8 8 8 8 8 8 8 0 0 8 8 8 0 0 0 0 0 0 0 8 0 0 0 0 0 0 0 0 0 0 0 0 0 0 0 8 8 8 8 24 8 32
32 16 16 8 16 16 16 16 16 16 16 16 16 16 16 16 16 16 16 8 16 16 8 16 16 16 16 8 8 8 8 8 16 8 8 8 8 8 8 16 8 8 8 8 8 8 8 8 8 8 8 8 8 0 0 0 0 0 0 0 0 0 0 0 0 0 0 0 0 0 0 0 0 0 0 0 8 8 8 8 8 16 8 32
24 16 8 8 8 16 8 16 16 16 16 16 16 16 16 16 16 16 8 16 16 16 8 16 8 8 8 8 8 8 8 16 8 8 8 8 8 8 8 8 8 8 8 8 8 8 8 8 8 0 8 8 8 0 0 0 8 0 0 0 0 0 0 0 0 0 0 0 0 0 0 0 0 0 0 0 8 8 8 8 8 16 8 24
24 16 8 16 16 16 16 16 16 16 16 24 24 16 16 16 16 16 8 8 16 8 8 8 16 16 16 16 8 8 8 16 16 8 8 8 8 8 8 8 8 8 8 8 8 8 8 0 0 0 0 8 8 0 0 0 0 8 8 8 8 8 8 8 8 0 0 0 0 0 0 0 0 0 0 8 8 8 8 0 8 16 8 24
16 16 16 16 8 16 16 16 24 24 24 24 16 16 16 16 24 24 16 16 16 16 16 16 16 16 16 16 16 16 16 8 8 8 16 8 8 8 8 8 8 8 8 8 8 8 8 8 0 0 8 8 8 0 0 0 0 8 8 8 8 8 8 8 0 8 0 8 0 0 0 0 0 0 0 8 8 8 0 8 8 8 8 16
16 16 8 16 16 16 16 24 24 16 24 16 24 24 16 24 16 16 16 16 16 16 16 16 16 8 16 16 16 16 8 16 16 8 8 8 8 8 8 8 8 8 8 8 8 8 8 8 8 8 8 0 0 0 0 8 8 8 8 8 8 8 8 8 8 8 0 8 8 0 0 0 0 0 0 8 8 8 8 8 8 8 8 16
16 16 16 16 8 16 16 24 24 24 24 32 40 24 16 24 24 24 24 24 16 16 16 24 32 32 24 16 8 8 8 8 8 8 8 8 8 8 8 8 8 8 8 8 8 8 8 8 8 8 8 0 0 8 8 8 8 0 8 8 8 8 8 8 8 8 8 8 8 0 0 0 0 0 0 0 8 8 8 8 8 8 8 8
16 16 16 16 16 16 16 16 24 32 32 48 24 16 24 32 32 24 32 24 24 32 64 80 88 80 72 48 32 16 8 8 8 8 8 8 8 8 8 8 8 8 8 8 8 8 8 8 8 8 8 8 8 8 8 8 8 8 8 8 8 8 8 8 8 8 0 8 8 0 0 8 0 8 8 8 0 8 8 8 8 8 0 8
16 16 16 16 16 16 16 16 24 24 24 16 16 32 32 16 24 24 24 24 32 72 88 88 96 88 80 72 64 48 40 24 16 8 8 8 8 8 8 8 8 8 8 8 8 8 8 8 8 8 8 8 8 8 8 8 8 8 8 8 8 8 8 8 8 8 8 8 8 8 8 8 0 0 8 8 8 8 8 8 8 8 0 8
16 16 16 16 16 16 16 16 24 32 16 16 24 32 16 24 16 16 16 24 48 80 88 88 88 88 88 80 72 72 56 56 56 48 32 16 8 8 8 8 8 8 8 8 8 8 8 8 8 8 8 8 8 8 8 8 8 8 8 8 8 16 8 8 8 8 8 8 8 8 8 8 8 8 8 8 8 8 8 8 8 8 0 16
16 8 8 8 16 8 8 16 24 16 16 16 24 16 16 16 16 16 16 32 48 72 72 80 88 88 88 80 80 80 64 64 64 64 56 32 16 0 0 8 8 8 8 8 8 8 8 8 8 8 8 8 8 8 8 8 8 8 8 8 8 8 8 8 8 8 8 8 8 8 8 8 8 8 8 8 8 8 8 8 8 8 0 8
16 16 16 16 16 16 8 16 16 16 16 16 16 16 16 16 16 16 16 16 56 64 64 64 72 64 72 80 80 80 72 64 64 64 56 40 32 24 16 8 8 8 8 8 8 8 8 8 8 8 8 8 8 8 8 8 8 8 8 8 8 8 8 8 8 8 8 8 8 8 8 8 0 8 8 8 8 8 8 8 8 8 0 8
8 8 16 16 16 16 8 16 16 16 16 16 16 16 16 16 16 16 16 16 48 56 56 56 56 56 64 72 72 72 72 64 64 64 64 56 56 56 40 40 24 8 0 8 8 8 8 8 8 8 8 8 8 8 8 8 8 8 8 8 8 8 8 8 8 8 8 8 8 8 8 8 8 0 0 8 8 8 8 8 8 8 0 8
16 16 16 16 16 16 16 16 16 16 16 16 16 16 16 16 16 16 16 16 24 40 40 40 40 48 56 64 64 64 64 64 64 64 64 64 64 72 64 56 48 24 16 8 8 8 8 8 8 8 8 8 8 8 16 16 8 16 8 8 8 8 8 8 8 8 0 8 8 8 8 8 0 0 0 0 8 8 0 8 8 8 0 8
16 8 16 16 16 16 8 16 16 16 16 8 16 16 16 8 16 16 16 16 16 24 24 24 32 40 48 56 56 56 64 64 64 64 64 64 56 56 64 80 72 40 16 8 8 8 8 16 16 16 16 8 16 24 24 24 24 16 16 16 16 16 8 8 8 8 8 8 8 8 8 8 8 0 0 0 0 8 0 8 8 8 0 8
8 8 8 8 16 16 8 8 16 16 16 16 16 8 16 16 16 16 16 16 8 16 16 16 24 32 48 48 48 56 56 56 56 56 56 56 48 32 48 72 80 72 40 16 24 24 24 32 32 32 32 32 24 16 16 24 24 16 16 16 16 16 8 8 0 8 8 8 8 8 8 8 8 8 8 8 8 8 8 8 8 8 0 8
8 8 16 8 16 8 8 8 8 16 8 16 16 16 16 16 16 8 16 16 16 16 16 24 32 32 40 48 48 48 56 56 56 48 56 56 40 24 16 32 56 64 56 32 24 24 24 32 40 32 24 24 24 24 16 16 24 24 16 16 16 8 16 8 8 0 8 8 8 8 8 8 8 8 8 8 8 8 8 8 8 0 0 8
8 8 8 8 8 16 8 8 8 16 16 16 16 16 16 16 16 16 16 16 24 32 40 48 40 24 32 32 40 48 48 48 48 48 40 48 56 56 24 16 24 40 48 40 32 24 24 16 16 24 24 16 24 16 16 24 24 32 24 16 16 16 16 8 8 8 0 8 8 8 8 8 8 8 8 8 8 8 8 8 8 8 0 16
16 8 8 8 16 16 8 16 16 16 16 16 16 16 16 16 16 16 24 40 56 48 56 72 56 32 24 32 32 32 40 40 48 40 24 24 56 64 56 32 8 16 24 32 32 32 24 24 16 16 24 24 24 24 16 16 16 24 24 24 16 8 16 16 8 8 8 8 8 8 8 8 8 8 8 8 8 8 8 8 8 8 0 16
8 8 8 8 16 16 8 8 16 16 16 16 16 16 16 16 16 24 48 48 32 32 56 64 56 40 24 24 24 32 32 40 56 56 48 24 24 48 64 64 32 16 16 16 24 32 32 24 16 16 16 24 24 24 24 16 16 16 16 24 16 8 16 16 16 8 8 8 8 8 8 8 8 8 8 8 8 8 8 8 8 8 0 8
16 8 8 16 16 16 8 16 16 16 16 16 16 16 16 16 16 32 32 24 32 48 64 64 72 64 40 24 16 32 32 32 40 48 56 56 24 24 48 56 48 24 16 16 16 24 32 24 24 16 16 16 16 24 24 24 16 24 16 16 16 8 16 16 16 8 8 8 8 8 8 8 8 8 8 8 8 8 8 8 8 8 0 16
8 8 16 16 16 16 8 16 16 16 16 8 16 16 16 16 16 24 24 24 48 56 48 56 72 64 48 32 16 24 24 24 24 24 40 64 56 24 16 32 32 40 32 16 16 16 16 16 16 16 16 16 16 16 24 24 24 16 24 16 16 16 16 8 8 8 8 8 8 16 16 16 8 16 8 8 8 8 8 8 8 8 0 8
8 8 8 16 16 16 8 16 16 16 16 16 16 16 16 16 16 24 24 40 48 32 32 56 64 56 48 40 24 24 16 24 24 16 24 40 64 56 24 16 24 32 40 24 16 16 16 16 16 16 16 16 16 16 16 24 16 16 16 16 16 16 16 16 16 8 8 8 8 8 8 8 8 8 8 8 8 8 8 8 8 8 0 8
8 8 8 8 8 8 8 8 16 16 16 16 16 16 16 16 16 24 32 40 32 24 48 56 64 64 40 32 24 24 16 16 24 24 24 16 40 40 24 16 16 24 24 32 24 16 16 8 16 16 16 16 8 8 16 16 16 16 16 16 16 8 16 16 16 8 8 8 8 8 8 8 8 8 8 8 8 8 8 8 8 8 0 8
8 8 8 8 16 8 8 16 16 16 16 16 16 16 8 16 16 24 24 24 24 24 40 40 56 48 32 24 24 24 16 16 16 24 24 16 16 24 24 24 16 16 16 24 24 16 16 16 16 16 16 16 8 8 8 8 8 8 8 8 8 8 16 16 8 8 8 8 8 8 8 8 8 8 8 8 8 8 8 8 8 8 0 16
8 8 16 16 16 16 16 16 16 16 16 16 16 16 16 16 16 16 24 24 24 32 40 48 40 32 24 16 16 16 16 16 16 16 16 16 16 16 16 16 16 16 16 16 16 16 16 16 16 16 16 16 16 16 16 16 8 8 8 16 16 16 16 16 8 8 8 8 16 8 8 8 8 8 8 8 8 8 8 8 8 8 0 8
8 8 8 8 16 16 16 16 16 16 16 8 8 16 16 16 16 16 16 24 24 32 48 40 24 16 16 16 16 8 16 16 16 16 16 16 8 16 16 16 16 16 16 16 8 8 8 16 16 16 16 16 16 16 16 16 16 8 16 16 16 16 16 8 8 8 8 8 16 8 8 8 8 8 8 8 8 8 8 8 8 8 0 8
8 8 8 8 8 16 16 16 16 16 16 16 16 16 16 16 16 16 16 16 24 32 40 24 16 16 16 16 16 8 8 8 16 8 8 16 16 8 16 16 16 16 16 16 8 8 8 8 8 8 8 16 8 8 16 16 16 16 16 16 16 16 16 8 8 8 8 8 8 8 8 8 8 8 8 8 8 8 8 8 8 8 0 8
8 8 8 8 8 16 8 16 16 16 16 8 16 16 16 16 16 8 8 16 16 24 24 16 16 16 16 16 16 16 8 16 16 16 16 16 16 16 16 16 16 16 8 16 8 8 8 8 8 8 8 8 8 8 16 16 16 16 16 16 16 16 16 16 16 8 8 8 8 8 8 8 8 8 8 8 8 8 8 8 8 8 0 8
16 8 8 8 8 16 16 16 16 16 16 8 8 16 16 16 16 8 8 16 16 24 24 16 16 16 16 16 16 16 8 16 16 16 16 16 8 16 16 16 16 16 8 16 8 8 8 8 8 8 8 8 8 8 8 8 8 16 8 16 16 16 16 16 16 16 8 8 8 8 8 8 8 8 8 8 8 8 8 8 8 8 0 8
8 8 8 8 16 16 16 16 16 16 16 8 16 16 8 16 8 8 8 16 16 16 16 16 16 16 16 16 16 16 16 16 16 16 16 16 16 16 16 16 16 16 8 8 8 8 8 8 8 8 8 8 8 8 8 8 8 8 16 16 16 16 8 8 8 16 8 8 8 8 8 8 8 8 8 8 8 8 8 8 8 8 0 8
8 8 8 16 16 16 16 16 16 16 16 8 16 16 16 8 8 8 8 16 16 16 16 16 16 16 16 16 16 16 16 16 8 16 16 16 16 16 16 16 16 16 8 16 16 16 8 8 8 8 8 8 8 8 8 8 8 8 16 16 16 16 8 16 16 16 8 8 8 8 8 8 8 8 8 8 8 0 8 8 8 8 0 8
8 16 16 16 16 16 8 16 16 8 16 8 8 8 8 8 8 8 8 8 16 16 8 8 16 8 8 16 16 16 16 16 16 16 16 16 16 8 8 8 8 8 8 8 8 8 8 8 8 8 8 8 8 8 8 8 8 8 8 16 16 16 16 16 8 8 8 16 8 8 8 8 0 8 8 8 0 0 0 8 8 8 0 16
16 16 16 16 8 8 8 8 8 8 8 8 8 8 8 8 8 8 8 8 16 8 8 8 8 8 8 8 16 8 8 8 8 8 8 8 8 8 8 8 8 8 8 8 8 8 8 8 8 8 8 8 8 8 8 8 8 8 8 8 8 8 16 16 8 8 8 8 8 8 0 0 0 0 8 8 8 0 0 0 0 0 0 16
16 8 8 8 8 8 8 8 8 8 0 0 0 8 8 0 8 8 8 8 8 8 8 8 8 8 8 8 8 8 8 8 8 8 8 8 8 8 8 8 8 8 8 8 8 8 8 8 8 8 8 8 8 8 8 8 8 8 8 8 8 8 8 16 8 8 8 8 8 8 0 0 0 0 0 0 0 0 0 0 0 0 0 8
8 8 8 8 8 8 8 8 8 0 0 0 0 0 0 0 8 8 8 8 8 8 0 0 8 0 8 8 8 8 8 8 8 8 0 0 8 0 8 8 8 8 8 8 8 8 8 8 8 8 8 8 8 8 8 8 0 8 8 8 8 8 8 8 8 8 8 8 0 0 0 0 0 0 0 0 0 0 0 0 0 0 0 